#!OML:ASF E:\acrobat2\Project_11_07_03\Capture day 1\Session 1\Acrobat.ASF
:FULLY-SPECIFIED
:DEGREES
342
root 8.81845 16.595 -24.6349 40.9928 -52.1302 -31.5483
lowerback 7.84624 2.48054 1.57937
upperback -0.641577 3.20945 -4.15629
thorax -4.74417 1.4799 -5.61299
lowerneck -3.30993 10.4831 5.60498
upperneck -6.19315 13.4459 -12.5237
head -0.055826 6.73587 -4.84081
rclavicle -6.83819e-014 1.90833e-014
rhumerus 32.8437 -57.4091 -18.6612
rradius 24.345
rwrist -16.7152
rhand -20.7298 -46.8876
rfingers 7.12502
rthumb 5.63519 -76.7926
lclavicle -6.83819e-014 1.90833e-014
lhumerus 17.2214 7.37435 -6.35472
lradius 25.279
lwrist 24.7179
lhand -27.1219 -2.63532
lfingers 7.12502
lthumb -0.53786 27.3437
rfemur -4.54704 -12.5007 21.4434
rtibia 22.5106
rfoot -32.7172 -24.0059
rtoes -18.4665
lfemur -57.428 32.259 -0.212612
ltibia 65.5139
lfoot -27.6535 2.79949
ltoes 36.9565
343
root 8.81313 16.5202 -24.5214 40.8076 -51.4007 -31.0358
lowerback 8.1084 2.45434 1.17821
upperback -0.51167 3.11204 -4.47264
thorax -4.77041 1.43532 -5.72043
lowerneck -3.02453 10.3345 5.67641
upperneck -6.40969 13.2395 -12.4781
head -0.195508 6.64635 -4.87628
rclavicle 5.56597e-014 -8.90555e-014
rhumerus 34.6676 -57.2246 -19.6718
rradius 24.5015
rwrist -16.7215
rhand -20.8049 -46.9764
rfingers 7.12502
rthumb 5.56274 -76.8834
lclavicle 5.56597e-014 -8.90555e-014
lhumerus 17.8628 9.13097 -5.11805
lradius 24.6585
lwrist 22.895
lhand -27.0639 -2.98578
lfingers 7.12502
lthumb -0.481824 26.9934
rfemur -5.06655 -12.8451 21.146
rtibia 23.7251
rfoot -32.856 -23.6513
rtoes -19.3707
lfemur -59.1908 32.3145 -1.719
ltibia 66.9329
lfoot -28.3656 3.36009
ltoes 36.3785
344
root 8.8072 16.4429 -24.4069 40.4919 -50.6198 -30.3916
lowerback 8.47818 2.44642 0.729674
upperback -0.374109 3.02547 -4.83936
thorax -4.84781 1.39451 -5.86227
lowerneck -3.03403 10.0542 5.79379
upperneck -6.49463 12.863 -12.26
head -0.267135 6.45715 -4.84368
rclavicle -1.27222e-014 2.54444e-014
rhumerus 36.6616 -57.5312 -21.096
rradius 24.5943
rwrist -16.1693
rhand -20.7868 -46.7918
rfingers 7.12502
rthumb 5.5802 -76.6984
lclavicle -1.27222e-014 2.54444e-014
lhumerus 18.5931 10.5264 -3.9684
lradius 24.1848
lwrist 21.3785
lhand -27.1166 -3.39232
lfingers 7.12502
lthumb -0.532666 26.5868
rfemur -5.50813 -13.4694 20.7752
rtibia 24.9238
rfoot -32.884 -23.3534
rtoes -20.0769
lfemur -60.9428 32.1811 -3.28182
ltibia 68.3885
lfoot -29.1042 3.86634
ltoes 35.3229
345
root 8.797 16.3615 -24.2859 40.5747 -49.9458 -30.3266
lowerback 8.85663 2.41211 0.357102
upperback -0.206883 2.92188 -5.00727
thorax -4.90655 1.34768 -5.83246
lowerneck -3.29691 9.96547 5.43291
upperneck -6.40305 12.7553 -11.984
head -0.248312 6.3998 -4.66704
rclavicle -4.77083e-014 -1.27222e-014
rhumerus 40.3653 -57.8004 -23.9524
rradius 24.4482
rwrist -15.4029
rhand -20.826 -46.4545
rfingers 7.12502
rthumb 5.54234 -76.362
lclavicle -4.77083e-014 -1.27222e-014
lhumerus 19.4342 13.7578 -1.68322
lradius 23.2018
lwrist 17.6984
lhand -26.8991 -3.98661
lfingers 7.12502
lthumb -0.322624 25.9929
rfemur -5.87501 -13.9842 20.6488
rtibia 26.0438
rfoot -32.9129 -23.1694
rtoes -21.0671
lfemur -62.3767 32.3459 -4.31836
ltibia 69.7675
lfoot -29.8788 4.45118
ltoes 34.5108
346
root 8.78484 16.2772 -24.1573 40.9066 -49.332 -30.5227
lowerback 9.09663 2.33074 0.0237171
upperback -0.0220692 2.7731 -5.02176
thorax -4.87784 1.28252 -5.64559
lowerneck -3.47086 9.98587 4.64216
upperneck -6.33794 12.8001 -11.7363
head -0.26756 6.42991 -4.42387
rclavicle 3.97569e-014 -4.77083e-014
rhumerus 42.0753 -56.8214 -24.3733
rradius 24.8507
rwrist -16.806
rhand -20.9856 -46.5859
rfingers 7.12502
rthumb 5.38824 -76.4974
lclavicle 3.97569e-014 -4.77083e-014
lhumerus 20.2499 17.9105 1.20894
lradius 22.0103
lwrist 12.8922
lhand -26.6372 -4.66934
lfingers 7.12502
lthumb -0.0696637 25.3104
rfemur -6.26225 -14.4254 20.65
rtibia 27.0675
rfoot -32.8668 -23.1378
rtoes -22.8507
lfemur -63.7242 32.5926 -5.18453
ltibia 71.0823
lfoot -30.6949 5.43919
ltoes 32.4584
347
root 8.77429 16.1918 -24.0299 41.358 -48.4861 -30.7474
lowerback 9.28721 2.32578 -0.00123086
upperback 0.12697 2.74949 -5.18994
thorax -4.82389 1.26985 -5.81264
lowerneck -3.30038 9.86377 4.64125
upperneck -6.64782 12.611 -11.8791
head -0.404063 6.3499 -4.50481
rclavicle -1.74931e-014 -5.08889e-014
rhumerus 47.9845 -57.4511 -29.7692
rradius 24.4907
rwrist -14.855
rhand -21.1622 -46.4691
rfingers 7.12502
rthumb 5.2177 -76.3849
lclavicle -1.74931e-014 -5.08889e-014
lhumerus 21.103 19.4197 2.61519
lradius 21.5496
lwrist 11.2785
lhand -26.752 -4.88896
lfingers 7.12502
lthumb -0.180564 25.0907
rfemur -6.6863 -14.7086 20.9327
rtibia 27.9676
rfoot -32.9109 -23.158
rtoes -24.6704
lfemur -65.1746 32.6157 -5.8773
ltibia 72.3939
lfoot -31.7243 5.50739
ltoes 32.6105
348
root 8.76424 16.1055 -23.9019 41.7211 -47.5637 -30.7802
lowerback 9.53174 2.42298 0.0717065
upperback 0.257932 2.84924 -5.64491
thorax -4.78764 1.31028 -6.36382
lowerneck -3.41342 9.45378 5.24086
upperneck -6.86993 12.0414 -11.733
head -0.477988 6.05478 -4.59008
rclavicle -2.54444e-014 -9.54166e-015
rhumerus 46.6593 -56.9866 -28.1232
rradius 25.3401
rwrist -16.7128
rhand -21.4572 -46.6397
rfingers 7.12502
rthumb 4.93286 -76.5623
lclavicle -2.54444e-014 -9.54166e-015
lhumerus 22.8784 20.9787 4.27779
lradius 20.9955
lwrist 9.73625
lhand -27.0045 -5.07906
lfingers 7.12502
lthumb -0.424426 24.9003
rfemur -7.06081 -14.7634 21.1937
rtibia 28.7257
rfoot -33.5207 -22.7776
rtoes -24.2841
lfemur -66.7668 32.5138 -6.68029
ltibia 73.7746
lfoot -32.9063 5.1052
ltoes 34.4114
349
root 8.75411 16.02 -23.7717 42.0194 -46.7183 -30.6547
lowerback 9.79444 2.44445 -0.109594
upperback 0.393593 2.81905 -6.07333
thorax -4.78359 1.29124 -6.72817
lowerneck -3.66729 9.21973 5.58253
upperneck -7.05724 11.7111 -11.5191
head -0.51785 5.87868 -4.58492
rclavicle 1.59028e-014 -1.27222e-014
rhumerus 49.8756 -57.233 -31.0491
rradius 25.2581
rwrist -16.3242
rhand -21.6722 -46.2424
rfingers 7.12502
rthumb 4.72532 -76.1697
lclavicle 1.59028e-014 -1.27222e-014
lhumerus 24.5455 22.8895 6.18059
lradius 20.4351
lwrist 7.89429
lhand -27.5877 -5.23897
lfingers 7.12502
lthumb -0.98766 24.7385
rfemur -7.47083 -14.9486 21.3632
rtibia 29.361
rfoot -34.0356 -22.784
rtoes -24.1991
lfemur -68.3522 32.3408 -7.63311
ltibia 75.0801
lfoot -34.1879 5.74287
ltoes 33.9105
350
root 8.74141 15.9375 -23.637 42.3238 -45.8823 -30.5505
lowerback 10.063 2.4109 -0.459826
upperback 0.534793 2.70664 -6.33032
thorax -4.80287 1.23741 -6.80068
lowerneck -3.88406 9.04363 5.5665
upperneck -7.20365 11.466 -11.3144
head -0.565196 5.75268 -4.51463
rclavicle -1.44715e-013 -3.81667e-014
rhumerus 48.5565 -56.2384 -29.0961
rradius 26.247
rwrist -18.8325
rhand -21.9044 -46.409
rfingers 7.12502
rthumb 4.50111 -76.3412
lclavicle -1.44715e-013 -3.81667e-014
lhumerus 25.8943 25.0693 8.38851
lradius 19.9967
lwrist 5.74701
lhand -27.7674 -5.63681
lfingers 7.12502
lthumb -1.1613 24.3398
rfemur -7.81136 -15.2961 21.5719
rtibia 29.8441
rfoot -33.9943 -23.4631
rtoes -26.1622
lfemur -69.6891 32.0685 -8.45724
ltibia 76.2415
lfoot -35.5292 6.65572
ltoes 31.8494
351
root 8.72656 15.8569 -23.4973 42.5595 -44.9637 -30.3446
lowerback 10.3665 2.36786 -0.785244
upperback 0.646768 2.58035 -6.58083
thorax -4.87273 1.17498 -6.88224
lowerneck -3.90614 8.85129 5.37683
upperneck -7.46394 11.2049 -11.0238
head -0.700852 5.62889 -4.39891
rclavicle 3.18055e-014 2.8625e-014
rhumerus 53.0133 -56.2797 -33.182
rradius 26.0048
rwrist -17.4933
rhand -21.9914 -46.18
rfingers 7.12502
rthumb 4.41706 -76.1139
lclavicle 3.18055e-014 2.8625e-014
lhumerus 27.332 26.7121 10.4086
lradius 19.4942
lwrist 4.10665
lhand -27.5271 -5.96856
lfingers 7.12502
lthumb -0.929191 24.0092
rfemur -8.02336 -15.5282 21.7406
rtibia 30.2056
rfoot -34.1906 -23.7858
rtoes -26.9343
lfemur -70.9723 31.627 -9.23742
ltibia 77.3942
lfoot -36.7724 7.06199
ltoes 30.6985
352
root 8.70926 15.7778 -23.3507 42.8587 -44.0052 -30.2161
lowerback 10.6969 2.31921 -1.05049
upperback 0.71782 2.44909 -6.82239
thorax -4.99881 1.10772 -6.99166
lowerneck -3.74824 8.68726 5.0766
upperneck -7.86499 10.9836 -10.6864
head -0.91831 5.53401 -4.261
rclavicle 1.59028e-014 3.49861e-014
rhumerus 57.4516 -55.9847 -37.281
rradius 25.712
rwrist -15.9814
rhand -22.2615 -46.2401
rfingers 7.12502
rthumb 4.15623 -76.1793
lclavicle 1.59028e-014 3.49861e-014
lhumerus 28.9642 27.7664 12.1142
lradius 18.7324
lwrist 3.13318
lhand -27.6854 -5.92218
lfingers 7.12502
lthumb -1.08206 24.0548
rfemur -8.15565 -15.4896 22.0036
rtibia 30.4486
rfoot -34.6207 -23.9674
rtoes -26.9698
lfemur -72.1818 31.1755 -9.85014
ltibia 78.4531
lfoot -37.8654 7.46966
ltoes 30.2861
353
root 8.69034 15.7026 -23.1976 43.2259 -43.0023 -30.2001
lowerback 11.0282 2.28509 -1.2597
upperback 0.848029 2.34564 -7.05121
thorax -5.05769 1.05511 -7.12045
lowerneck -3.70486 8.45087 4.90182
upperneck -8.27255 10.6573 -10.4175
head -1.11304 5.38067 -4.16732
rclavicle 4.77083e-014 -1.27222e-014
rhumerus 60.2704 -55.5737 -39.6873
rradius 25.675
rwrist -15.582
rhand -22.5199 -46.3622
rfingers 7.12502
rthumb 3.90672 -76.3061
lclavicle 4.77083e-014 -1.27222e-014
lhumerus 30.9844 29.261 14.3276
lradius 17.8796
lwrist 1.60699
lhand -28.0577 -5.93809
lfingers 7.12502
lthumb -1.44165 24.0368
rfemur -8.16845 -15.2771 22.4217
rtibia 30.4544
rfoot -34.8531 -24.599
rtoes -28.1353
lfemur -73.2172 30.7142 -10.1869
ltibia 79.4161
lfoot -38.9895 7.46779
ltoes 30.9817
354
root 8.67505 15.6326 -23.052 43.621 -41.7878 -29.8879
lowerback 11.2612 2.14022 -1.52396
upperback 1.00888 2.09202 -7.32195
thorax -5.04646 0.930682 -7.23325
lowerneck -4.17722 8.2242 4.78971
upperneck -8.39835 10.3534 -10.0421
head -1.12462 5.2187 -4.00737
rclavicle -4.77083e-014 3.49861e-014
rhumerus 62.1632 -55.4028 -41.2416
rradius 25.8032
rwrist -15.9824
rhand -22.4371 -45.8132
rfingers 7.12502
rthumb 3.98669 -75.7557
lclavicle -4.77083e-014 3.49861e-014
lhumerus 33.306 31.276 17.0251
lradius 17.123
lwrist -0.293079
lhand -28.0573 -6.13115
lfingers 7.12502
lthumb -1.44123 23.8437
rfemur -8.34977 -15.102 22.8984
rtibia 30.3119
rfoot -35.2676 -24.9502
rtoes -27.8146
lfemur -74.5233 29.9055 -10.5735
ltibia 80.4002
lfoot -39.5678 6.14489
ltoes 33.289
355
root 8.6619 15.5656 -22.9129 44.219 -40.3879 -29.4252
lowerback 11.3834 1.89587 -1.81661
upperback 1.09772 1.70854 -7.57221
thorax -5.06582 0.742867 -7.28382
lowerneck -4.95921 8.05222 4.64269
upperneck -8.27274 10.135 -9.58926
head -0.998832 5.08971 -3.7875
rclavicle -3.18055e-015 -6.36111e-015
rhumerus 64.6424 -55.1446 -43.477
rradius 25.8191
rwrist -15.8445
rhand -22.4759 -45.3987
rfingers 7.12502
rthumb 3.94918 -75.3418
lclavicle -3.18055e-015 -6.36111e-015
lhumerus 35.579 33.0176 19.6064
lradius 16.4553
lwrist -1.74568
lhand -27.8214 -5.99131
lfingers 7.12502
lthumb -1.2134 23.985
rfemur -8.84558 -14.9795 23.5
rtibia 30.1672
rfoot -35.7564 -24.8561
rtoes -25.9162
lfemur -76.2452 28.8943 -11.0174
ltibia 81.4903
lfoot -39.8417 4.22524
ltoes 36.6004
